<?xml version="1.0" encoding="UTF-8" standalone="no"?>
<!DOCTYPE svg PUBLIC "-//W3C//DTD SVG 1.1//EN" "http://www.w3.org/Graphics/SVG/1.1/DTD/svg11.dtd">
<svg version="1.1" xmlns="http://www.w3.org/2000/svg" xmlns:xlink="http://www.w3.org/1999/xlink" preserveAspectRatio="xMidYMid meet" viewBox="0 0 640 640" width="30" height="30"><defs><path d="M640 244.38C640 269.94 640 474.44 640 500C640 533.13 613.13 560 580 560C528 560 112 560 60 560C26.88 560 0 533.13 0 500C0 474.45 0 270.05 0 244.5C0 238.25 7.13 234.75 12.13 238.63C40.12 260.38 77.25 288 204.75 380.63C231.12 399.88 275.63 440.38 320 440.13C364.63 440.5 410 399.13 435.38 380.63C562.88 288 599.88 260.25 627.88 238.5C632.75 234.63 640 238.25 640 244.38ZM411.75 348.25C577.63 227.88 590.25 217.38 628.5 187.38C635.75 181.75 640 173 640 163.75C640 161.38 640 142.38 640 140C640 106.88 613.12 80 580 80C528 80 112 80 60 80C26.88 80 0 106.88 0 140C0 142.38 0 161.38 0 163.75C0 173 4.25 181.63 11.5 187.38C49.75 217.25 62.38 227.88 228.25 348.25C249.25 363.5 291 400.5 320 400C349 400.5 390.75 363.5 411.75 348.25Z" id="brrPMzvkm"></path></defs><g><g><g><use xlink:href="#brrPMzvkm" opacity="1" fill="#ffffff" fill-opacity="1"></use><g><use xlink:href="#brrPMzvkm" opacity="1" fill-opacity="0" stroke="#000000" stroke-width="1" stroke-opacity="0"></use></g></g></g></g></svg>