<?xml version="1.0" encoding="UTF-8" standalone="no"?>
<!DOCTYPE svg PUBLIC "-//W3C//DTD SVG 1.1//EN" "http://www.w3.org/Graphics/SVG/1.1/DTD/svg11.dtd">
<svg version="1.1" xmlns="http://www.w3.org/2000/svg" xmlns:xlink="http://www.w3.org/1999/xlink" preserveAspectRatio="xMidYMid meet" viewBox="0 0 640 640" width="30" height="30"><defs><path d="M210.88 501.25C206.75 501.63 203.88 499.63 203.88 496.75C203.88 494.25 206.75 492.25 210.38 492.25C214.13 491.87 217.38 493.87 217.38 496.75C217.38 499.25 214.5 501.25 210.88 501.25ZM183.88 497.25C187.13 498.5 190.88 497.25 191.63 494.75C192.38 492.25 190 489.37 186.25 488.25C183 487.38 179.38 488.63 178.5 491.13C177.63 493.63 180.13 496.5 183.88 497.25ZM228 495.12C228.38 497.62 231.63 499.25 235.38 498.38C239 497.5 241.5 495.12 241.13 492.62C240.75 490.25 237.38 488.63 233.75 489C230.13 489.88 227.63 492.25 228 495.12ZM10 315C10 453.63 97.25 572.25 221.88 614C237.88 616.88 243.5 607 243.5 598.88C243.5 591.13 243.13 548.38 243.13 522.13C243.13 522.13 155.63 540.88 137.25 484.88C137.25 484.88 123 448.5 102.5 439.12C102.5 439.12 73.88 419.5 104.5 419.88C104.5 419.88 135.63 422.38 152.75 452.13C180.13 500.38 226 486.5 243.88 478.25C246.75 458.25 254.88 444.37 263.88 436.13C194 428.38 123.5 418.25 123.5 298C123.5 263.63 133 246.37 153 224.37C149.75 216.25 139.13 182.75 156.25 139.5C182.38 131.37 242.5 173.25 242.5 173.25C267.5 166.25 294.38 162.62 321 162.62C347.63 162.62 374.5 166.25 399.5 173.25C399.5 173.25 459.63 131.25 485.75 139.5C502.88 182.87 492.25 216.25 489 224.37C509 246.5 521.25 263.75 521.25 298C521.25 418.63 447.63 428.25 377.75 436.13C389.25 446 399 464.75 399 494.12C399 536.25 398.63 588.37 398.63 598.63C398.63 606.75 404.38 616.63 420.25 613.75C545.25 572.25 630 453.63 630 315C630 141.63 489.38 10 316 10C142.63 10 10 141.63 10 315ZM132.38 447.62C134.38 449.63 137.25 450.5 138.88 448.87C140.5 447.62 140.13 444.75 138 442.38C136 440.37 133.13 439.5 131.5 441.13C129.88 442.38 130.25 445.25 132.38 447.62ZM120.88 435.87C122.88 437.12 125.38 436.75 126.25 435C127.13 433.37 125.88 431.37 123.38 430.12C120.88 429.37 118.88 429.75 118 431C117.13 432.62 118.38 434.62 120.88 435.87ZM160.13 483.25C163 486.13 166.63 486.5 168.25 484.5C169.88 482.87 169.13 479.12 166.63 476.75C163.88 473.87 160.13 473.5 158.5 475.5C156.5 477.13 157.25 480.88 160.13 483.25ZM144.25 464.5C146.25 467.38 149.63 468.63 151.25 467.38C153.25 465.75 153.25 462.5 151.25 459.63C149.5 456.75 146.25 455.5 144.25 457.13C142.25 458.38 142.25 461.63 144.25 464.5Z" id="aMRgrscD"></path></defs><g><g><g><use xlink:href="#aMRgrscD" opacity="1" fill="#ffffff" fill-opacity="1"></use><g><use xlink:href="#aMRgrscD" opacity="1" fill-opacity="0" stroke="#000000" stroke-width="1" stroke-opacity="0"></use></g></g></g></g></svg>