<?xml version="1.0" encoding="UTF-8" standalone="no"?>
<!DOCTYPE svg PUBLIC "-//W3C//DTD SVG 1.1//EN" "http://www.w3.org/Graphics/SVG/1.1/DTD/svg11.dtd">
<svg version="1.1" xmlns="http://www.w3.org/2000/svg" xmlns:xlink="http://www.w3.org/1999/xlink" preserveAspectRatio="xMidYMid meet" viewBox="0 0 30 30" width="30" height="30"><defs><path d="M30 0C30 0 30 0 30 0C30 18 30 28 30 30C30 30 30 30 30 30C12 30 2 30 0 30C0 30 0 30 0 30C0 12 0 2 0 0C0 0 0 0 0 0C18 0 28 0 30 0Z" id="c5kb7JCrg2"></path><path d="M20.15 23.44C20.76 24.42 21.54 25.15 22.93 25.15C24.1 25.15 24.85 24.57 24.85 23.76C24.85 22.79 24.08 22.45 22.8 21.89C22.72 21.86 22.16 21.62 22.09 21.59C20.06 20.72 18.7 19.63 18.7 17.34C18.7 15.22 20.32 13.61 22.83 13.61C24.63 13.61 25.91 14.24 26.84 15.87C26.62 16.01 24.87 17.14 24.65 17.28C24.16 16.41 23.64 16.07 22.83 16.07C22.01 16.07 21.48 16.6 21.48 17.28C21.48 18.13 22.01 18.47 23.22 18.99C23.29 19.02 23.85 19.26 23.92 19.29C26.32 20.32 27.67 21.37 27.67 23.72C27.67 26.26 25.68 27.65 23 27.65C20.38 27.65 18.69 26.4 17.86 24.77C18.32 24.5 19.69 23.7 20.15 23.44ZM10.19 23.68C10.64 24.47 11.04 25.13 12.01 25.13C12.93 25.13 13.52 24.77 13.52 23.36C13.52 22.72 13.52 19.53 13.52 13.77L16.34 13.77C16.34 19.55 16.34 22.76 16.34 23.4C16.34 26.32 14.63 27.65 12.13 27.65C9.87 27.65 8.56 26.48 7.9 25.07C8.36 24.79 9.73 23.96 10.19 23.68Z" id="b5Mmh19jTG"></path></defs><g><g><g><use xlink:href="#c5kb7JCrg2" opacity="1" fill="#4A4744" fill-opacity="1"></use><g><use xlink:href="#c5kb7JCrg2" opacity="1" fill-opacity="0" stroke="#000000" stroke-width="1" stroke-opacity="0"></use></g></g><g><use xlink:href="#b5Mmh19jTG" opacity="1" fill="#ffffff" fill-opacity="1"></use><g><use xlink:href="#b5Mmh19jTG" opacity="1" fill-opacity="0" stroke="#000000" stroke-width="1" stroke-opacity="0"></use></g></g></g></g></svg>