<?xml version="1.0" encoding="UTF-8" standalone="no"?>
<!DOCTYPE svg PUBLIC "-//W3C//DTD SVG 1.1//EN" "http://www.w3.org/Graphics/SVG/1.1/DTD/svg11.dtd">
<svg version="1.1" xmlns="http://www.w3.org/2000/svg" xmlns:xlink="http://www.w3.org/1999/xlink" preserveAspectRatio="xMidYMid meet" viewBox="0 0 30 30" width="30" height="30"><defs><path d="M6.51 4.79C4.78 7.26 5 10.48 6.31 13.12C6.32 13.13 6.35 13.19 6.41 13.3L6.47 13.42L6.51 13.49C6.55 13.56 6.57 13.6 6.58 13.61C6.62 13.68 6.66 13.76 6.7 13.83C6.71 13.84 6.77 13.93 6.78 13.95C6.82 14.02 6.87 14.1 6.92 14.17C6.93 14.18 6.98 14.26 6.98 14.27C7.05 14.37 7.12 14.47 7.19 14.57C7.2 14.58 7.2 14.58 7.2 14.58C7.22 14.61 7.23 14.63 7.24 14.63C7.3 14.72 7.36 14.8 7.43 14.89C7.44 14.9 7.49 14.97 7.5 14.98C7.56 15.05 7.62 15.12 7.68 15.2C7.69 15.21 7.74 15.27 7.75 15.28C7.83 15.37 7.91 15.47 8 15.56C8 15.56 8 15.56 8 15.57C8.01 15.57 8.01 15.58 8.01 15.58C8.09 15.67 8.18 15.76 8.26 15.84C8.27 15.85 8.33 15.92 8.34 15.92C8.41 15.99 8.48 16.06 8.54 16.12C8.55 16.13 8.62 16.19 8.63 16.2C8.72 16.29 8.81 16.37 8.9 16.45C8.9 16.45 8.9 16.45 8.91 16.45C8.93 16.48 8.95 16.49 8.95 16.5C9.04 16.57 9.12 16.64 9.2 16.71C9.21 16.71 9.3 16.78 9.31 16.79C9.38 16.84 9.45 16.9 9.52 16.95C9.53 16.96 9.62 17.03 9.63 17.04C9.71 17.09 9.78 17.15 9.86 17.21C9.87 17.21 9.9 17.23 9.95 17.27C9.96 17.28 9.97 17.28 9.97 17.28C10.05 17.33 10.12 17.38 10.2 17.43C10.21 17.44 10.29 17.49 10.3 17.5C10.41 17.57 10.53 17.65 10.65 17.72C10.66 17.72 10.74 17.77 10.75 17.77C10.84 17.82 10.93 17.87 11.02 17.92C11.03 17.93 11.08 17.95 11.17 18L11.36 18.1L11.4 18.12C11.45 18.14 11.47 18.15 11.48 18.16C11.58 18.2 11.68 18.25 11.78 18.3C11.79 18.3 11.84 18.32 11.85 18.33C11.96 18.38 12.08 18.43 12.2 18.47C12.21 18.48 12.28 18.5 12.29 18.51C12.4 18.55 12.51 18.59 12.62 18.63C12.62 18.63 12.66 18.64 12.66 18.64C12.78 18.69 12.91 18.73 13.03 18.77C13.04 18.77 13.11 18.79 13.12 18.79C13.25 18.83 13.38 18.88 13.51 18.9C21.84 20.42 24.26 13.89 24.26 13.89C22.23 16.54 18.62 17.24 15.2 16.46C15.07 16.43 14.95 16.39 14.82 16.36C14.81 16.35 14.73 16.33 14.72 16.33C14.6 16.29 14.48 16.25 14.36 16.21C14.35 16.21 14.31 16.19 14.31 16.19C14.2 16.15 14.09 16.11 13.98 16.07C13.97 16.07 13.9 16.04 13.89 16.03C13.77 15.99 13.66 15.94 13.54 15.89C13.53 15.89 13.48 15.86 13.47 15.86C13.37 15.81 13.27 15.77 13.18 15.72C13.17 15.72 13.1 15.68 13.09 15.68C13.01 15.64 12.94 15.6 12.86 15.56C12.85 15.56 12.73 15.49 12.71 15.48C12.62 15.43 12.53 15.38 12.44 15.33C12.43 15.33 12.35 15.28 12.34 15.28C12.22 15.21 12.11 15.14 11.99 15.06C11.98 15.05 11.9 15 11.89 15C11.81 14.94 11.72 14.89 11.64 14.83C11.63 14.82 11.57 14.78 11.56 14.77C11.48 14.71 11.4 14.66 11.32 14.6C11.31 14.59 11.22 14.53 11.21 14.52C11.14 14.46 11.07 14.41 11 14.35C10.99 14.34 10.91 14.28 10.9 14.27C10.81 14.2 10.72 14.12 10.63 14.04C10.63 14.04 10.6 14.02 10.6 14.02C10.5 13.94 10.41 13.85 10.32 13.76C10.31 13.75 10.25 13.69 10.24 13.69C10.17 13.62 10.1 13.55 10.03 13.49C10.03 13.48 9.96 13.41 9.95 13.41C9.87 13.32 9.79 13.23 9.7 13.14C9.7 13.14 9.69 13.13 9.69 13.13C9.61 13.03 9.52 12.94 9.44 12.84C9.43 12.83 9.38 12.77 9.37 12.76C9.31 12.69 9.25 12.61 9.19 12.54C9.18 12.53 9.13 12.46 9.12 12.45C9.05 12.36 8.98 12.27 8.91 12.17C7.02 9.58 6.33 6.01 7.85 3.08M11.85 2.7C10.61 4.49 10.68 6.89 11.65 8.79C11.81 9.11 11.99 9.42 12.2 9.71C12.39 9.98 12.59 10.3 12.84 10.51C12.93 10.61 13.02 10.71 13.12 10.8C13.13 10.81 13.19 10.87 13.19 10.87C13.29 10.96 13.38 11.05 13.48 11.14C13.48 11.14 13.48 11.14 13.49 11.15C13.49 11.15 13.49 11.15 13.49 11.15C13.6 11.25 13.71 11.34 13.83 11.43C13.83 11.43 13.9 11.48 13.9 11.49C14.02 11.57 14.13 11.66 14.25 11.74C14.25 11.74 14.26 11.74 14.26 11.75L14.42 11.85C14.47 11.88 14.49 11.9 14.5 11.9C14.58 11.96 14.67 12.01 14.76 12.06C14.76 12.06 14.79 12.08 14.79 12.08C14.87 12.13 14.94 12.17 15.02 12.21C15.03 12.21 15.05 12.23 15.1 12.25L15.26 12.34C15.28 12.34 15.28 12.35 15.29 12.35C15.4 12.4 15.51 12.45 15.62 12.5C15.63 12.51 15.69 12.53 15.69 12.53C15.78 12.57 15.87 12.61 15.97 12.64C15.98 12.65 16.07 12.68 16.08 12.69C16.17 12.72 16.25 12.75 16.34 12.78C16.35 12.78 16.44 12.81 16.45 12.81C16.57 12.85 16.69 12.9 16.81 12.92C23.25 13.98 24.73 9.03 24.73 9.03C23.39 10.96 20.8 11.88 18.03 11.16C17.91 11.13 17.79 11.09 17.67 11.05C17.66 11.05 17.57 11.02 17.56 11.02C17.47 10.99 17.39 10.96 17.3 10.93C17.29 10.93 17.2 10.89 17.19 10.89C17.1 10.85 17 10.82 16.91 10.78C16.91 10.77 16.85 10.75 16.84 10.75C16.73 10.7 16.61 10.64 16.5 10.59C16.49 10.58 16.44 10.56 16.34 10.5C16.28 10.47 16.25 10.46 16.24 10.45C16.17 10.42 16.1 10.38 16.03 10.33C16.02 10.33 15.98 10.31 15.98 10.3C15.89 10.25 15.8 10.2 15.72 10.15C15.71 10.14 15.69 10.13 15.64 10.1C15.54 10.03 15.48 9.99 15.47 9.99C15.35 9.9 15.24 9.82 15.12 9.73C15.12 9.72 15.05 9.68 15.05 9.67C13.84 8.71 12.88 7.41 12.42 5.92C11.94 4.39 12.04 2.66 12.87 1.26M16.35 1.14C15.62 2.22 15.55 3.56 16.06 4.76C16.59 6.03 17.69 7.02 18.98 7.49C18.99 7.5 19.04 7.51 19.14 7.55C19.18 7.56 19.21 7.57 19.21 7.57C19.29 7.59 19.36 7.62 19.44 7.63C22.99 8.32 23.96 5.81 24.21 5.44C23.37 6.66 21.95 6.95 20.21 6.53C20.07 6.49 19.92 6.44 19.79 6.4C19.62 6.34 19.45 6.27 19.29 6.19C18.98 6.04 18.68 5.86 18.41 5.65C16.85 4.47 15.89 2.22 16.9 0.38" id="c1wPfu7MkA"></path><path d="M14.56 22.57C14.51 22.57 14.45 22.61 14.44 22.67C14.42 22.78 14.3 23.32 14.09 24.29C13.88 25.27 13.76 25.81 13.74 25.92C13.73 25.97 13.67 26.02 13.62 26.02C13.55 26.02 12.99 26.02 12.92 26.02C12.22 26.02 12.3 25.54 12.44 24.88C12.45 24.88 12.45 24.87 12.45 24.86L12.46 24.78L12.47 24.76L12.5 24.59L12.53 24.41L12.57 24.23L12.73 23.45C12.82 22.98 12.88 22.72 12.89 22.67C12.9 22.61 12.86 22.57 12.81 22.57C12.71 22.57 11.89 22.57 11.79 22.57C11.74 22.57 11.68 22.61 11.67 22.67C11.66 22.74 11.58 23.08 11.45 23.7L11.23 24.74L11.23 24.74C11.22 24.8 11.22 24.83 11.21 24.84C10.96 25.99 11.03 27.08 12.4 27.12C12.4 27.12 12.41 27.12 12.44 27.12C13.73 27.12 14.44 27.12 14.58 27.12C14.64 27.12 14.69 27.08 14.71 27.02C14.74 26.88 14.89 26.15 15.17 24.84C15.45 23.54 15.6 22.81 15.63 22.67C15.64 22.61 15.61 22.57 15.55 22.57C15.55 22.57 14.66 22.57 14.56 22.57ZM3.86 22.56C3.8 22.56 3.75 22.6 3.74 22.66C3.73 22.69 3.7 22.84 3.63 23.11C3.57 23.38 3.54 23.54 3.53 23.57C3.52 23.62 3.55 23.66 3.61 23.66C3.72 23.66 4.59 23.66 4.7 23.66C4.76 23.66 4.81 23.62 4.83 23.57C4.83 23.53 4.87 23.38 4.93 23.11C4.98 22.84 5.02 22.69 5.02 22.66C5.04 22.6 5 22.56 4.95 22.56C4.73 22.56 3.97 22.56 3.86 22.56ZM3.53 23.97C3.48 23.97 3.42 24.02 3.41 24.07C3.4 24.12 3.35 24.34 3.26 24.75L3.1 25.44L3.06 25.63L2.91 26.33C2.83 26.74 2.78 26.98 2.77 27.02C2.75 27.08 2.73 27.16 2.71 27.22C2.71 27.22 2.51 27.83 2.16 27.82C2.16 27.82 2.15 27.82 2.12 27.82L1.82 27.81C1.82 27.81 1.82 27.81 1.82 27.81C1.77 27.81 1.71 27.85 1.7 27.91C1.69 27.94 1.65 28.1 1.59 28.39C1.52 28.67 1.48 28.83 1.47 28.86C1.46 28.92 1.49 28.96 1.55 28.96C1.74 28.96 2.18 28.97 2.45 28.97C3.31 28.97 3.76 28.49 4.05 27.12C4.07 27.02 4.19 26.49 4.39 25.55C4.58 24.66 4.69 24.17 4.71 24.07C4.72 24.02 4.69 23.97 4.63 23.97C4.41 23.97 3.64 23.97 3.53 23.97ZM24.77 23.42L24.72 23.23C24.71 23.17 24.7 23.13 24.7 23.13C24.61 22.78 24.35 22.58 23.78 22.58C23.72 22.58 23.43 22.58 22.9 22.58L22.09 22.58C21.54 22.58 21.23 22.58 21.17 22.58C21.12 22.58 21.06 22.62 21.05 22.68C21.05 22.69 21.03 22.75 21.01 22.87L20.96 23.1L20.95 23.16L20.54 25.09C20.3 26.19 20.17 26.8 20.14 26.92C20.13 26.98 20.13 27.04 20.14 27.07C20.14 27.1 20.25 27.12 20.3 27.12C20.38 27.12 21.05 27.12 21.13 27.12C21.18 27.12 21.25 27.11 21.28 27.1C21.31 27.09 21.36 26.98 21.37 26.92C21.38 26.87 21.43 26.63 21.51 26.2L21.66 25.47L21.66 25.47L21.68 25.37L21.86 24.54C21.95 24.1 22.01 23.85 22.02 23.8C22.03 23.75 22.08 23.7 22.14 23.7C22.4 23.7 24.48 23.7 24.74 23.7C24.79 23.7 24.83 23.66 24.81 23.61C24.81 23.58 24.79 23.52 24.77 23.42ZM27.96 21.91C27.46 21.91 27.18 21.91 27.13 21.91C27.07 21.91 27 21.95 26.97 21.99C26.79 22.26 25.32 24.42 25.13 24.69C25.1 24.73 25.07 24.73 25.05 24.67C25.04 24.61 24.93 24.14 24.92 24.08C24.91 24.02 24.85 23.98 24.8 23.98C24.68 23.98 23.73 23.98 23.61 23.98C23.56 23.98 23.53 24.02 23.54 24.08C23.59 24.26 24.02 25.75 24.07 25.93C24.09 25.99 24.09 26.07 24.07 26.13C24.05 26.22 23.87 26.94 23.84 27.02C23.83 27.08 23.86 27.12 23.92 27.12C24.03 27.12 24.97 27.12 25.09 27.12C25.14 27.12 25.2 27.08 25.21 27.02C25.23 26.94 25.42 26.22 25.44 26.13C25.46 26.07 25.49 25.99 25.53 25.95C25.83 25.55 28.21 22.38 28.51 21.99C28.55 21.94 28.53 21.91 28.47 21.91C28.45 21.91 28.35 21.91 28.16 21.91L27.96 21.91ZM18.76 24.23C18.76 24.29 18.7 24.34 18.65 24.34C18.5 24.34 17.3 24.34 17.15 24.34C17.1 24.34 17.07 24.3 17.08 24.26C17.08 24.26 17.08 24.26 17.08 24.25L17.08 24.25L17.08 24.25C17.08 24.23 17.09 24.23 17.09 24.22C17.23 23.84 17.52 23.59 18.07 23.59C18.69 23.59 18.81 23.89 18.76 24.23C18.76 24.23 18.76 24.23 18.76 24.23ZM15.69 24.85C15.43 26.05 15.45 27.18 17.45 27.18C17.46 27.18 17.54 27.18 17.69 27.18L17.75 27.17L17.76 27.17L18 27.17C18 27.17 18 27.17 18 27.17C18.53 27.17 19.06 27.17 19.27 27.17C19.33 27.17 19.38 27.12 19.39 27.07C19.4 27.04 19.42 26.91 19.47 26.67L19.49 26.6C19.55 26.32 19.58 26.16 19.58 26.13C19.59 26.07 19.56 26.03 19.5 26.03C19.32 26.03 17.89 26.03 17.71 26.03C17 26.03 16.79 25.84 16.87 25.28C17.06 25.28 18.01 25.28 19.73 25.28L19.73 25.28C19.73 25.28 19.73 25.28 19.73 25.28C19.78 25.28 19.82 25.25 19.84 25.21C19.84 25.21 19.84 25.2 19.84 25.19C19.84 25.19 19.84 25.19 19.84 25.19C20.27 23.58 20.15 22.5 18.32 22.5C16.4 22.5 15.94 23.67 15.69 24.85ZM9.2 24.32L9.2 24.32L8.99 25.09C8.86 25.55 8.78 25.8 8.77 25.85C8.75 25.91 8.7 25.95 8.64 25.95C8.53 25.95 7.61 25.95 7.5 25.95C6.63 25.95 6.42 25.27 6.63 24.27C6.84 23.25 7.26 22.61 8.11 22.55C9.28 22.46 9.51 23.28 9.23 24.23C9.23 24.24 9.22 24.27 9.2 24.32ZM10.68 23.83C10.84 22.81 10.34 21.35 8.38 21.35C6.43 21.35 5.58 22.75 5.26 24.27C4.94 25.81 5.36 27.15 7.3 27.14C7.4 27.14 7.91 27.14 8.83 27.14C9.68 27.13 10.16 27.13 10.25 27.13C10.31 27.13 10.36 27.09 10.38 27.03C10.4 26.94 10.6 26.18 10.63 26.09C10.64 26.03 10.61 25.99 10.55 25.99C10.54 25.99 10.46 25.99 10.31 25.99C10.17 25.99 10.09 25.99 10.07 25.99C10.03 25.99 10 25.95 10.01 25.91C10.01 25.91 10.01 25.91 10.01 25.89C10.37 25.02 10.59 24.33 10.68 23.83ZM19.59 25.08C19.55 25.08 19.52 25.05 19.52 25.02C19.52 24.98 19.55 24.95 19.59 24.95C19.62 24.95 19.65 24.98 19.65 25.02C19.65 25.05 19.62 25.08 19.59 25.08Z" id="ammZOsTpa"></path></defs><g><g><g><use xlink:href="#c1wPfu7MkA" opacity="1" fill="#0868ac" fill-opacity="1"></use><g><use xlink:href="#c1wPfu7MkA" opacity="1" fill-opacity="0" stroke="#000000" stroke-width="1" stroke-opacity="0"></use></g></g><g><use xlink:href="#ammZOsTpa" opacity="1" fill="#4a4744" fill-opacity="1"></use><g><use xlink:href="#ammZOsTpa" opacity="1" fill-opacity="0" stroke="#000000" stroke-width="1" stroke-opacity="0"></use></g></g></g></g></svg>