<?xml version="1.0" encoding="UTF-8" standalone="no"?>
<!DOCTYPE svg PUBLIC "-//W3C//DTD SVG 1.1//EN" "http://www.w3.org/Graphics/SVG/1.1/DTD/svg11.dtd">
<svg version="1.1" xmlns="http://www.w3.org/2000/svg" xmlns:xlink="http://www.w3.org/1999/xlink" preserveAspectRatio="xMidYMid meet" viewBox="0 0 30 30" width="30" height="30"><defs><path d="M14.54 24.11C14.45 24.06 13.73 23.63 13.64 23.58C13.5 23.5 13.57 23.48 13.62 23.46C13.8 23.4 13.83 23.39 14.02 23.27C14.04 23.26 14.07 23.27 14.09 23.28C14.16 23.32 14.72 23.65 14.78 23.69C14.81 23.7 14.85 23.7 14.87 23.69C15.14 23.53 17.31 22.28 17.58 22.13C17.6 22.11 17.62 22.08 17.62 22.05C17.62 21.74 17.62 19.24 17.62 18.92C17.62 18.89 17.61 18.86 17.58 18.85C17.31 18.69 15.14 17.44 14.87 17.29C14.85 17.27 14.81 17.27 14.78 17.29C14.51 17.44 12.35 18.69 12.08 18.85C12.05 18.86 12.03 18.9 12.03 18.92C12.03 19.24 12.03 21.74 12.03 22.05C12.03 22.08 12.05 22.11 12.08 22.12C12.15 22.16 12.74 22.5 12.82 22.55C13.22 22.75 13.47 22.51 13.47 22.28C13.47 21.97 13.47 19.49 13.47 19.19C13.47 19.14 13.5 19.11 13.55 19.11C13.58 19.11 13.85 19.11 13.89 19.11C13.93 19.11 13.97 19.14 13.97 19.19C13.97 19.49 13.97 21.97 13.97 22.28C13.97 22.81 13.68 23.12 13.17 23.12C13.01 23.12 12.89 23.12 12.54 22.95C12.47 22.91 11.9 22.58 11.83 22.54C11.66 22.44 11.55 22.25 11.55 22.05C11.55 21.74 11.55 19.24 11.55 18.92C11.55 18.72 11.65 18.53 11.83 18.43C12.1 18.27 14.27 17.02 14.54 16.87C14.71 16.77 14.94 16.77 15.11 16.87C15.38 17.02 17.55 18.27 17.82 18.43C17.99 18.53 18.1 18.72 18.1 18.92C18.1 19.24 18.1 21.74 18.1 22.05C18.1 22.25 18 22.44 17.82 22.54C17.55 22.7 15.38 23.95 15.11 24.11C15.03 24.16 14.93 24.19 14.83 24.19C14.73 24.19 14.63 24.16 14.54 24.11ZM15.79 20.25C14.94 20.14 14.86 20.08 14.86 19.88C14.86 19.72 14.93 19.5 15.55 19.5C16.11 19.5 16.32 19.63 16.4 20C16.41 20.04 16.44 20.06 16.48 20.06C16.51 20.06 16.79 20.06 16.83 20.06C16.85 20.06 16.87 20.05 16.88 20.04C16.9 20.02 16.91 20 16.9 19.98C16.85 19.33 16.42 19.03 15.55 19.03C14.78 19.03 14.32 19.36 14.32 19.9C14.32 20.5 14.78 20.66 15.52 20.73C16.41 20.82 16.48 20.95 16.48 21.12C16.48 21.43 16.23 21.55 15.66 21.55C14.94 21.55 14.78 21.38 14.73 21.02C14.73 20.98 14.7 20.95 14.65 20.95C14.62 20.95 14.34 20.95 14.3 20.95C14.26 20.95 14.22 20.99 14.22 21.03C14.22 21.49 14.47 22.03 15.66 22.03C16.52 22.03 17.02 21.69 17.02 21.1C17.02 20.52 16.62 20.36 15.79 20.25ZM19.05 19.27C18.76 19.27 18.53 19.04 18.53 18.75C18.53 18.46 18.77 18.23 19.05 18.23C19.33 18.23 19.57 18.46 19.57 18.75C19.57 19.04 19.34 19.27 19.05 19.27ZM19.05 18.32C18.81 18.32 18.61 18.51 18.61 18.75C18.61 19 18.81 19.2 19.05 19.2C19.29 19.19 19.49 18.99 19.49 18.75C19.49 18.51 19.29 18.32 19.05 18.32ZM19.15 19.05C19.15 19.02 19.13 18.87 19.13 18.86C19.12 18.83 19.11 18.81 19.07 18.81C19.06 18.81 19.03 18.81 18.97 18.81L18.97 19.05L18.85 19.05L18.85 18.46C18.97 18.46 19.04 18.46 19.05 18.46C19.13 18.46 19.26 18.46 19.26 18.61C19.26 18.72 19.19 18.75 19.15 18.76C19.23 18.76 19.23 18.82 19.25 18.89C19.25 18.94 19.26 19.02 19.28 19.05C19.25 19.05 19.17 19.05 19.15 19.05ZM19.06 18.55C19.05 18.55 19.02 18.55 18.97 18.55L18.97 18.72C19.02 18.72 19.05 18.72 19.05 18.72C19.13 18.72 19.14 18.67 19.14 18.63C19.14 18.55 19.09 18.55 19.06 18.55ZM6.26 11.65C5.98 11.49 3.68 10.16 3.39 10C3.34 9.97 3.29 9.96 3.23 9.95C3.23 9.95 3.2 9.95 3.2 9.95C3.15 9.95 3.09 9.97 3.04 10C2.76 10.16 0.46 11.49 0.17 11.65C0.07 11.71 0 11.83 0 11.95C0 12.4 0 15.96 0 16.41C0 16.47 0.04 16.52 0.09 16.56C0.14 16.59 0.21 16.59 0.26 16.56C0.43 16.46 1.8 15.67 1.97 15.58C2.08 15.51 2.14 15.4 2.14 15.28C2.14 15.07 2.14 13.4 2.14 13.2C2.14 13.07 2.21 12.96 2.32 12.9C2.39 12.85 2.97 12.52 3.04 12.48C3.1 12.45 3.15 12.43 3.22 12.43C3.28 12.43 3.34 12.45 3.39 12.48C3.46 12.52 4.04 12.85 4.12 12.9C4.22 12.96 4.29 13.07 4.29 13.2C4.29 13.4 4.29 15.07 4.29 15.28C4.29 15.4 4.35 15.52 4.46 15.58C4.63 15.67 6 16.46 6.17 16.56C6.22 16.59 6.29 16.59 6.34 16.56C6.39 16.53 6.43 16.47 6.43 16.41C6.43 16.11 6.43 14.63 6.44 11.95C6.39 11.79 6.33 11.69 6.26 11.65ZM22.15 15.36C22.15 15.48 22.08 15.6 21.98 15.66C21.69 15.83 19.39 17.15 19.1 17.32C18.99 17.38 18.86 17.38 18.75 17.32C18.47 17.15 16.17 15.83 15.88 15.66C15.77 15.6 15.71 15.48 15.71 15.36C15.71 15.03 15.71 12.37 15.71 12.04C15.71 11.92 15.77 11.8 15.88 11.74C16.17 11.58 18.47 10.25 18.75 10.08C18.86 10.02 18.99 10.02 19.1 10.08C19.17 10.12 19.75 10.45 19.82 10.5C19.9 10.54 20 10.48 20 10.39C20 9.95 20 6.43 20 5.99C20 5.85 20.14 5.77 20.26 5.84C20.43 5.93 21.8 6.7 21.97 6.79C22.08 6.85 22.15 6.97 22.15 7.09C22.15 8.75 22.15 14.53 22.15 15.36ZM19.95 13.06C19.85 13 19.06 12.54 18.97 12.49C18.94 12.47 18.9 12.47 18.88 12.49C18.78 12.54 17.99 13 17.89 13.06C17.86 13.07 17.85 13.1 17.85 13.13C17.85 13.25 17.85 14.16 17.85 14.27C17.85 14.31 17.87 14.33 17.89 14.35C17.99 14.41 18.78 14.86 18.88 14.92C18.9 14.93 18.94 14.93 18.96 14.92C19.06 14.86 19.85 14.41 19.95 14.35C19.97 14.33 19.99 14.31 19.99 14.27C19.99 14.2 19.99 13.82 19.99 13.13C19.98 13.09 19.97 13.07 19.95 13.06ZM30 12.8C30 12.72 30 12.08 30 12C30 11.88 29.93 11.76 29.83 11.7C29.54 11.53 27.26 10.21 26.97 10.04C26.86 9.98 26.73 9.98 26.63 10.04C26.34 10.21 24.04 11.53 23.75 11.7C23.64 11.76 23.58 11.88 23.58 12C23.58 12.33 23.58 14.99 23.58 15.32C23.58 15.45 23.64 15.56 23.75 15.62C24.04 15.78 26.32 17.08 26.61 17.25C26.71 17.31 26.84 17.31 26.95 17.25C27.12 17.15 28.5 16.38 28.67 16.28C28.79 16.22 28.79 16.05 28.67 15.98C28.38 15.82 26.07 14.49 25.78 14.33C25.73 14.29 25.69 14.24 25.69 14.18C25.69 14.07 25.69 13.24 25.69 13.13C25.69 13.07 25.73 13.02 25.78 12.98C25.87 12.93 26.59 12.52 26.68 12.46C26.73 12.43 26.8 12.43 26.85 12.46C26.94 12.52 27.66 12.93 27.75 12.98C27.81 13.02 27.84 13.07 27.84 13.13C27.84 13.22 27.84 13.87 27.84 13.95C27.84 14.08 27.99 14.17 28.11 14.1C28.22 14.03 28.79 13.7 29.83 13.1C29.94 12.98 30 12.88 30 12.8ZM26.17 13.32C26.17 13.39 26.17 13.9 26.17 13.96C26.17 13.98 26.18 14.01 26.2 14.02C26.26 14.05 26.7 14.3 26.76 14.33C26.78 14.35 26.8 14.35 26.82 14.33C26.88 14.3 27.32 14.05 27.38 14.02C27.39 14 27.41 13.98 27.41 13.96C27.41 13.9 27.41 13.39 27.41 13.32C27.41 13.3 27.39 13.28 27.38 13.27C27.32 13.23 26.88 12.98 26.82 12.95C26.8 12.93 26.78 12.93 26.76 12.95C26.72 12.97 26.54 13.07 26.2 13.27C26.18 13.29 26.17 13.31 26.17 13.32ZM14.29 12C14.29 11.88 14.21 11.77 14.1 11.7C13.82 11.54 11.53 10.22 11.24 10.05C11.14 10 11.01 9.99 10.89 10.05C10.61 10.22 8.32 11.54 8.03 11.7C7.92 11.77 7.85 11.88 7.85 12C7.85 12.33 7.85 14.97 7.85 15.3C7.85 15.44 7.94 15.55 8.03 15.6C8.32 15.77 10.62 17.09 10.9 17.25C11.02 17.32 11.15 17.32 11.25 17.25C11.54 17.09 13.82 15.77 14.11 15.6C14.19 15.56 14.25 15.48 14.28 15.38C14.28 15.36 14.29 15.33 14.29 15.3C14.29 14.64 14.29 12.33 14.29 12ZM10.77 9.47L10.82 9.47L10.8 9.45L10.77 9.47ZM14.36 15.52L14.36 15.56L14.38 15.55L14.36 15.52Z" id="e2FCcJ7W89"></path></defs><g><g><g><use xlink:href="#e2FCcJ7W89" opacity="1" fill="#ffffff" fill-opacity="1"></use><g><use xlink:href="#e2FCcJ7W89" opacity="1" fill-opacity="0" stroke="#000000" stroke-width="1" stroke-opacity="0"></use></g></g></g></g></svg>