<?xml version="1.0" encoding="UTF-8" standalone="no"?>
<!DOCTYPE svg PUBLIC "-//W3C//DTD SVG 1.1//EN" "http://www.w3.org/Graphics/SVG/1.1/DTD/svg11.dtd">
<svg version="1.1" xmlns="http://www.w3.org/2000/svg" xmlns:xlink="http://www.w3.org/1999/xlink" preserveAspectRatio="xMidYMid meet" viewBox="0 0 30 30" width="30" height="30"><defs><path d="M26.02 17.5C25.83 17.5 25.61 17.52 25.37 17.57C24.93 17.66 24.55 17.71 24.22 17.72C26.8 13.32 28.48 7.21 26.82 5.09C24.63 2.29 21.69 1.87 20.13 1.87C20.11 1.87 19.99 1.87 19.98 1.88C19.4 1.88 18.8 1.96 18.19 2.09C17.97 2.14 16.17 2.52 15.95 2.57C15.65 2.53 15.34 2.51 15.01 2.5C15.01 2.5 15 2.5 14.99 2.5L14.98 2.5C14.93 2.5 14.89 2.5 14.89 2.5C13.89 2.5 12.98 2.71 12.17 3.11C12.1 3.08 11.47 2.83 11.39 2.8C10.32 2.38 8.7 1.87 7.1 1.87C7.01 1.87 6.92 1.87 6.83 1.88C5.25 1.93 3.9 2.53 2.92 3.61C1.69 4.95 1.13 6.91 1.25 9.44C1.26 9.57 2.79 22.5 7.13 22.5C7.13 22.5 7.13 22.5 7.14 22.5C7.16 22.5 7.18 22.5 7.18 22.5C7.74 22.49 8.28 22.26 8.78 21.83C9.17 22.11 9.66 22.28 10.12 22.35C10.43 22.42 10.98 22.53 11.63 22.53C12.44 22.53 13.16 22.36 13.78 22.06C13.78 22.61 13.78 23.31 13.77 24.2C13.77 24.2 13.77 24.22 13.77 24.25C13.78 24.28 13.78 24.29 13.78 24.29C13.84 25.18 13.99 25.98 14.22 26.61C14.88 28.39 16.01 29.38 17.42 29.38C17.47 29.38 17.53 29.38 17.59 29.37C18.75 29.3 19.92 28.65 20.72 27.64C21.59 26.54 21.79 25.39 21.87 24.5C21.87 24.5 21.87 24.48 21.88 24.44L21.88 24.39L21.88 21.84L21.94 21.85L22.21 21.87L22.24 21.87C22.25 21.87 22.26 21.87 22.26 21.87C22.34 21.88 22.42 21.88 22.5 21.88C23.44 21.88 24.6 21.63 25.39 21.27C26.14 20.92 27.85 19.97 27.55 18.62C27.44 18.1 26.97 17.5 26.02 17.5Z" id="f6kZVHKkk"></path><path d="M20.64 20.9C20.63 20.74 20.63 20.63 20.63 20.63C20.63 20.63 20.63 20.62 20.64 20.61C20.74 18.94 21.2 18.3 21.69 17.93C21.62 17.83 21.54 17.73 21.47 17.63C21.26 17.36 21 17.02 20.72 16.59C20.72 16.58 20.68 16.5 20.67 16.49C20.63 16.39 20.53 16.21 20.4 15.98C19.66 14.64 18.12 11.86 19.18 10.1C19.64 9.33 20.5 8.89 21.75 8.78C21.24 7.32 19.33 3.82 14.99 3.75C14.99 3.75 14.99 3.75 14.99 3.75C11.21 3.69 9.97 7.12 9.57 9.17C10.12 8.93 10.76 8.79 11.34 8.79C11.35 8.79 11.36 8.79 11.37 8.79C12.8 8.8 13.78 9.57 14.07 10.89C14.28 11.86 14.38 12.71 14.38 13.48C14.37 15.18 14.03 16.08 13.72 16.87C13.71 16.89 13.64 17.09 13.63 17.12C13.55 17.33 13.47 17.52 13.39 17.71C13.31 17.89 13.24 18.06 13.19 18.21C13.49 18.28 13.73 18.37 13.9 18.44C13.91 18.45 13.98 18.48 13.99 18.49C14.02 18.5 14.05 18.51 14.08 18.53C14.61 18.85 14.94 19.35 15.01 19.92C15.04 20.24 15.04 22.36 15.02 24.21C15.08 25.01 15.22 25.69 15.4 26.18C15.65 26.87 16.29 28.2 17.52 28.12C18.37 28.07 19.2 27.55 19.74 26.86C20.33 26.12 20.54 25.31 20.63 24.39C20.63 24.18 20.63 23.13 20.63 21.25C20.63 21.09 20.63 20.98 20.64 20.9Z" id="e1g4vAhJ2E"></path><path d="M8.13 14.29C8.31 13.02 8.21 11.77 8.15 11.1C8.14 10.88 8.12 10.71 8.13 10.62C8.13 10.62 8.13 10.61 8.13 10.61C8.13 10.6 8.13 10.6 8.13 10.6C8.2 8.71 8.93 5.73 10.93 3.96C9.96 3.58 8.37 3.07 6.88 3.13C4.54 3.21 2.27 4.83 2.5 9.38C2.59 11.08 4.51 21.31 7.15 21.25C7.53 21.24 7.92 21 8.32 20.52C8.96 19.75 9.57 19.06 10.01 18.58C9.82 18.43 9.63 18.26 9.45 18.07C8.44 17.02 7.95 15.61 8.13 14.29ZM23.13 9.46C23.15 10.04 23.08 10.6 23.02 11.14C22.97 11.53 22.93 11.94 22.91 12.36C22.9 12.76 22.96 13.16 23.02 13.58C23.16 14.56 23.3 15.68 22.54 16.98C22.68 17.16 22.8 17.33 22.9 17.5C25.78 12.83 26.94 7.27 25.84 5.86C24.16 3.72 21.84 3.1 20 3.13C19.42 3.13 18.9 3.21 18.45 3.31C21.63 4.85 23.04 8.14 23.14 9.21C23.15 9.3 23.14 9.39 23.13 9.46ZM22.77 18.72C22.71 18.76 22.64 18.8 22.59 18.83C22.35 18.98 21.99 19.2 21.9 20.57C21.95 20.58 21.99 20.59 22.05 20.6C22.08 20.6 22.29 20.62 22.32 20.63C23.15 20.66 24.23 20.43 24.86 20.14C26.23 19.5 26.97 18.52 25.63 18.79C23.96 19.14 23.16 18.96 22.77 18.72ZM13.46 19.62C13.45 19.61 13.4 19.59 13.39 19.59C13.16 19.49 12.91 19.38 12.5 19.38C12.5 19.38 12.5 19.38 12.5 19.38C12.42 19.38 12.34 19.39 12.26 19.39C12.23 19.39 12.2 19.38 12.16 19.38C11.87 19.61 11.45 19.79 10.4 20C8.54 20.47 9.64 21.03 10.35 21.12C11.05 21.29 12.69 21.5 13.78 20.62C13.78 20.34 13.77 20.14 13.76 20.07C13.74 19.89 13.64 19.74 13.46 19.62Z" id="cBK4RR6Ft"></path><path d="M12.14 11.87C11.62 11.78 11.22 11.16 11.25 10.92C11.25 10.92 11.25 10.92 11.25 10.92C11.28 10.69 11.72 10.57 12.24 10.65C12.42 10.68 12.58 10.73 12.72 10.79C12.52 10.36 12.16 10.12 11.6 10.06C10.63 9.95 9.59 10.46 9.38 10.74C9.38 10.81 9.39 10.9 9.4 11C9.46 11.72 9.57 13.05 9.37 14.46C9.24 15.39 9.61 16.44 10.35 17.21C10.82 17.7 11.37 18.02 11.92 18.11C11.99 17.81 12.11 17.52 12.24 17.22C12.31 17.05 12.38 16.88 12.45 16.68C12.47 16.66 12.55 16.44 12.56 16.42C12.83 15.7 13.12 14.95 13.12 13.48C13.13 12.91 13.06 12.27 12.93 11.56C12.74 11.75 12.46 11.92 12.14 11.87ZM21.66 12.32C21.68 11.85 21.73 11.41 21.78 10.99C21.82 10.66 21.85 10.34 21.86 10.02C21.06 10.09 20.52 10.32 20.27 10.71C20.38 10.68 20.49 10.65 20.63 10.63C21.18 10.56 21.59 10.72 21.64 11.03C21.67 11.26 21.48 11.47 21.39 11.55C21.22 11.72 21 11.83 20.78 11.86C20.74 11.86 20.7 11.87 20.66 11.87C20.44 11.87 20.23 11.79 20.07 11.68C20.14 12.91 21.05 14.56 21.49 15.37C21.59 15.54 21.66 15.68 21.73 15.8C21.97 15.1 21.88 14.46 21.78 13.75C21.71 13.3 21.65 12.83 21.66 12.32Z" id="f4yb5QFz4"></path></defs><g><g><g><use xlink:href="#f6kZVHKkk" opacity="1" fill="#ffffff" fill-opacity="1"></use><g><use xlink:href="#f6kZVHKkk" opacity="1" fill-opacity="0" stroke="#000000" stroke-width="1" stroke-opacity="0"></use></g></g><g><use xlink:href="#e1g4vAhJ2E" opacity="1" fill="#0277bd" fill-opacity="1"></use><g><use xlink:href="#e1g4vAhJ2E" opacity="1" fill-opacity="0" stroke="#000000" stroke-width="1" stroke-opacity="0"></use></g></g><g><use xlink:href="#cBK4RR6Ft" opacity="1" fill="#0277bd" fill-opacity="1"></use><g><use xlink:href="#cBK4RR6Ft" opacity="1" fill-opacity="0" stroke="#000000" stroke-width="1" stroke-opacity="0"></use></g></g><g><use xlink:href="#f4yb5QFz4" opacity="1" fill="#0277bd" fill-opacity="1"></use><g><use xlink:href="#f4yb5QFz4" opacity="1" fill-opacity="0" stroke="#000000" stroke-width="1" stroke-opacity="0"></use></g></g></g></g></svg>