<?xml version="1.0" encoding="UTF-8" standalone="no"?>
<!DOCTYPE svg PUBLIC "-//W3C//DTD SVG 1.1//EN" "http://www.w3.org/Graphics/SVG/1.1/DTD/svg11.dtd">
<svg version="1.1" xmlns="http://www.w3.org/2000/svg" xmlns:xlink="http://www.w3.org/1999/xlink" preserveAspectRatio="xMidYMid meet" viewBox="0 0 30 30" width="30" height="30"><defs><path d="M502.5 215.13C503.63 210.5 504.63 205.88 505.63 201.25C521 126.75 510.88 66.88 476.75 47.13C443.87 28.25 390.25 47.88 336 95.13C330.62 99.75 325.37 104.62 320.37 109.5C317 106.25 313.5 103 310 99.87C253.12 49.37 196.12 28.12 162 48C129.25 67 119.5 123.37 133.25 193.88C134.62 200.88 136.12 207.75 137.87 214.75C129.87 217 122 219.5 114.62 222.13C47.88 245.25 0 281.75 0 319.5C0 358.5 51 397.63 120.38 421.38C126 423.25 131.63 425.13 137.38 426.75C135.5 434.25 133.88 441.63 132.38 449.25C119.25 518.63 129.5 573.63 162.25 592.5C196 612 252.75 592 308 543.63C312.38 539.75 316.75 535.75 321.13 531.5C326.62 536.88 332.38 542 338.13 547C391.63 593 444.5 611.63 477.13 592.75C510.88 573.25 521.88 514.13 507.62 442.13C506.5 436.63 505.25 431 503.87 425.25C507.87 424.13 511.75 422.88 515.62 421.63C587.75 397.75 640 359.13 640 319.5C640 281.63 590.75 244.88 522.75 221.5C516 219.25 509.25 217.13 502.5 215.13ZM463.25 70.38C484.37 82.5 492.5 131.5 479.25 195.88C478.38 200.13 477.5 204.25 476.37 208.38C448.63 202.13 420.5 197.63 392.25 195.13C376 171.88 358.25 149.63 339 128.75C343.87 124.13 348.62 119.75 353.62 115.38C400.12 74.88 443.5 59 463.25 70.38ZM228.75 416.75C209.25 414.63 189.88 411.5 170.75 407.38C176.25 389.38 183.13 370.75 191.13 351.75C196.88 362.75 202.75 373.63 209 384.38C215.37 395.25 221.88 406.13 228.75 416.75ZM228.12 224.25C221.5 234.63 215 245.25 208.87 256C202.75 266.63 196.75 277.5 191.12 288.5C183.25 269.88 176.62 251.62 171.12 234C189.12 230 208.25 226.75 228.12 224.25ZM232.13 269.38C241.62 252.75 251.88 236.63 262.63 220.75C281.38 219.38 300.5 218.63 320 218.63C339.5 218.63 358.75 219.38 377.38 220.75C388 236.5 398.13 252.63 407.75 269.13C417.38 285.63 426.37 302.5 434.88 319.63C426.5 336.88 417.5 353.88 407.87 370.63C398.37 387.25 388.25 403.38 377.62 419.38C359 420.75 339.63 421.38 320 421.38C300.37 421.38 281.37 420.75 263 419.63C252.13 403.75 241.87 387.5 232.25 370.88C222.63 354.25 213.75 337.38 205.37 320.13C213.62 302.88 222.63 286 232.13 269.38ZM449.38 350.75C457.38 368.88 464.38 387.25 470.5 406.13C451.13 410.5 431.5 413.88 411.75 416.13C418.5 405.63 424.88 394.88 431.13 384.13C437.5 373.13 443.5 362 449.38 350.75ZM431 255.75C424.88 245.13 418.5 234.63 411.87 224.25C432 226.75 451.25 230.13 469.25 234.25C463.5 252.75 456.75 270.75 449.12 288.5C443.25 277.5 437.25 266.5 431 255.75ZM357.25 192.63C332.5 191.5 307.63 191.5 282.88 192.63C295.13 176.5 307.75 161.5 320.25 147.88C333.38 162.13 345.75 177.13 357.25 192.63ZM292 120C295.13 122.75 298.25 125.75 301.5 128.75C282.13 149.63 264.25 171.88 247.87 195.13C219.63 197.63 191.62 202 163.87 208.13C162.25 201.75 160.87 195.25 159.5 188.75C147.75 128.25 155.5 82.63 175.25 71.25C196.25 59 242.87 76.5 292 120ZM129.12 395.88C102.5 387.5 72.25 374.25 50.37 356.88C37.75 348.13 29.25 334.63 26.87 319.5C26.87 296.63 66.37 267.38 123.37 247.5C130.5 245 137.75 242.75 145 240.63C153.5 267.75 163.75 294.38 175.63 320.13C163.63 346.25 153.25 373.25 144.63 400.75C139.37 399.25 134.25 397.63 129.12 395.88ZM219.87 567.38C206 574 190 574.63 175.75 569C155.87 557.5 147.62 513.38 158.87 454C160.25 447 161.75 440 163.5 433.13C191.5 439.13 219.75 443.25 248.37 445.38C264.87 468.75 283 491.13 302.38 512.13C298.38 516 294.37 519.75 290.38 523.25C269.75 542.13 245.88 557.13 219.87 567.38ZM283.12 447.5C295.12 448 307.5 448.25 320 448.25C332.87 448.25 345.5 448 358 447.38C346.5 463.25 334.12 478.38 321 492.88C308.25 479.13 295.5 463.88 283.12 447.5ZM463.75 569.5C443.87 581 401.5 566 355.75 526.75C350.5 522.25 345.25 517.38 339.87 512.38C359 491.25 376.62 468.88 392.62 445.38C421.25 443 449.75 438.63 477.87 432.25C479.12 437.38 480.25 442.5 481.25 447.5C487.37 474.5 488.37 502.63 484.37 530.38C483.25 545.63 475.75 559.88 463.75 569.5ZM496.5 399.25C487.75 372 477 345.38 464.62 319.5C476.62 294 486.75 267.75 495.25 240.88C501.75 242.75 508 244.75 514 246.75C572.25 266.75 613.12 296.5 613.12 319.25C613.12 343.75 569.5 375.38 507.12 396C503.62 397.13 500.12 398.25 496.5 399.25ZM377.25 320C377.25 288.38 351.62 262.75 320 262.75C288.37 262.75 262.75 288.38 262.75 320C262.75 351.63 288.37 377.25 320 377.25C351.62 377.25 377.25 351.63 377.25 320Z" id="c3xVRD1TM2"></path></defs><g><g><g><use xlink:href="#c3xVRD1TM2" opacity="1" fill="#4a4744" fill-opacity="1"></use><g><use xlink:href="#c3xVRD1TM2" opacity="1" fill-opacity="0" stroke="#000000" stroke-width="1" stroke-opacity="0"></use></g></g></g></g></svg>